<?xml version="1.0" encoding="UTF-8"?>
<svg width="14px" height="10px" viewBox="0 0 14 10" version="1.1" xmlns="http://www.w3.org/2000/svg" xmlns:xlink="http://www.w3.org/1999/xlink">
    <!-- Generator: Sketch 51.2 (57519) - http://www.bohemiancoding.com/sketch -->
    <title>ic_group</title>
    <desc>Created with Sketch.</desc>
    <defs></defs>
    <g id="Page-1" stroke="none" stroke-width="1" fill="none" fill-rule="evenodd">
        <g id="Android-Copy" transform="translate(-71.000000, -243.000000)">
            <g id="Group-Copy" transform="translate(18.000000, 189.000000)">
                <g id="ic_group" transform="translate(53.000000, 52.000000)">
                    <g id="Icon-24px">
                        <polygon id="Shape" points="0 0 14 0 14 14 0 14"></polygon>
                        <path d="M9.33333333,6.41666667 C10.3016667,6.41666667 11.0775,5.635 11.0775,4.66666667 C11.0775,3.69833333 10.3016667,2.91666667 9.33333333,2.91666667 C8.365,2.91666667 7.58333333,3.69833333 7.58333333,4.66666667 C7.58333333,5.635 8.365,6.41666667 9.33333333,6.41666667 L9.33333333,6.41666667 Z M4.66666667,6.41666667 C5.635,6.41666667 6.41083333,5.635 6.41083333,4.66666667 C6.41083333,3.69833333 5.635,2.91666667 4.66666667,2.91666667 C3.69833333,2.91666667 2.91666667,3.69833333 2.91666667,4.66666667 C2.91666667,5.635 3.69833333,6.41666667 4.66666667,6.41666667 L4.66666667,6.41666667 Z M4.66666667,7.58333333 C3.3075,7.58333333 0.583333333,8.26583333 0.583333333,9.625 L0.583333333,11.0833333 L8.75,11.0833333 L8.75,9.625 C8.75,8.26583333 6.02583333,7.58333333 4.66666667,7.58333333 L4.66666667,7.58333333 Z M9.33333333,7.58333333 C9.16416667,7.58333333 8.97166667,7.595 8.7675,7.6125 C9.44416667,8.1025 9.91666667,8.76166667 9.91666667,9.625 L9.91666667,11.0833333 L13.4166667,11.0833333 L13.4166667,9.625 C13.4166667,8.26583333 10.6925,7.58333333 9.33333333,7.58333333 L9.33333333,7.58333333 Z" id="Shape" fill="#FFFFFF"></path>
                    </g>
                </g>
            </g>
        </g>
    </g>
</svg>