<?xml version="1.0" encoding="UTF-8"?>
<svg width="18px" height="18px" viewBox="0 0 18 18" version="1.1" xmlns="http://www.w3.org/2000/svg" xmlns:xlink="http://www.w3.org/1999/xlink">
    <!-- Generator: Sketch 51.2 (57519) - http://www.bohemiancoding.com/sketch -->
    <title>ic_center_focus_strong</title>
    <desc>Created with Sketch.</desc>
    <defs></defs>
    <g id="Page-1" stroke="none" stroke-width="1" fill="none" fill-rule="evenodd">
        <g id="Image" transform="translate(-339.000000, -147.000000)">
            <g id="ic_center_focus_strong" transform="translate(336.000000, 144.000000)">
                <g id="Icon-24px">
                    <polygon id="Shape" points="0 0 24 0 24 24 0 24"></polygon>
                    <path d="M12,8 C9.79,8 8,9.79 8,12 C8,14.21 9.79,16 12,16 C14.21,16 16,14.21 16,12 C16,9.79 14.21,8 12,8 L12,8 Z M5,15 L3,15 L3,19 C3,20.1 3.9,21 5,21 L9,21 L9,19 L5,19 L5,15 L5,15 Z M5,5 L9,5 L9,3 L5,3 C3.9,3 3,3.9 3,5 L3,9 L5,9 L5,5 L5,5 Z M19,3 L15,3 L15,5 L19,5 L19,9 L21,9 L21,5 C21,3.9 20.1,3 19,3 L19,3 Z M19,19 L15,19 L15,21 L19,21 C20.1,21 21,20.1 21,19 L21,15 L19,15 L19,19 L19,19 Z" id="Shape" fill="#000000"></path>
                </g>
            </g>
        </g>
    </g>
</svg>